<svg width="22" height="22" viewBox="0 0 22 22" fill="none" xmlns="http://www.w3.org/2000/svg">
<g id="menu_book_black_24dp" clip-path="url(#clip0_20_131)">
<g id="Group">
<path id="Vector" d="M16.0416 4.125C14.2541 4.125 12.3291 4.49167 11 5.5C9.67079 4.49167 7.74579 4.125 5.95829 4.125C4.62913 4.125 3.21746 4.32667 2.03496 4.84917C1.36579 5.15167 0.916626 5.8025 0.916626 6.545V16.885C0.916626 18.0767 2.03496 18.9567 3.18996 18.6633C4.08829 18.4342 5.04163 18.3333 5.95829 18.3333C7.38829 18.3333 8.90996 18.5717 10.1383 19.1767C10.6883 19.4517 11.3116 19.4517 11.8525 19.1767C13.0808 18.5625 14.6025 18.3333 16.0325 18.3333C16.9491 18.3333 17.9025 18.4342 18.8008 18.6633C19.9558 18.9658 21.0741 18.0858 21.0741 16.885V6.545C21.0741 5.8025 20.625 5.15167 19.9558 4.84917C18.7825 4.32667 17.3708 4.125 16.0416 4.125ZM19.25 15.7942C19.25 16.3717 18.7183 16.7933 18.15 16.6925C17.4625 16.5642 16.7475 16.5092 16.0416 16.5092C14.4833 16.5092 12.2375 17.105 11 17.8842V7.33333C12.2375 6.55417 14.4833 5.95833 16.0416 5.95833C16.885 5.95833 17.7191 6.04083 18.5166 6.215C18.9383 6.30667 19.25 6.6825 19.25 7.11333V15.7942Z" fill="url(#paint0_linear_20_131)"/>
<path id="Vector_2" d="M12.8149 10.0924C12.5216 10.0924 12.2558 9.90911 12.1641 9.61578C12.0449 9.25828 12.2466 8.86412 12.6041 8.75412C14.0158 8.29578 15.8399 8.14912 17.5174 8.34162C17.8933 8.38745 18.1683 8.72662 18.1224 9.10245C18.0766 9.47828 17.7374 9.75328 17.3616 9.70745C15.8766 9.53328 14.2541 9.67078 13.0258 10.0649C12.9524 10.0741 12.8791 10.0924 12.8149 10.0924Z" fill="url(#paint1_linear_20_131)"/>
<path id="Vector_3" d="M12.8149 12.5308C12.5216 12.5308 12.2558 12.3475 12.1641 12.0541C12.0449 11.6966 12.2466 11.3025 12.6041 11.1925C14.0066 10.7341 15.8399 10.5875 17.5174 10.78C17.8933 10.8258 18.1683 11.165 18.1224 11.5408C18.0766 11.9166 17.7374 12.1916 17.3616 12.1458C15.8766 11.9716 14.2541 12.1091 13.0258 12.5033C12.9524 12.5216 12.8791 12.5308 12.8149 12.5308Z" fill="url(#paint2_linear_20_131)"/>
<path id="Vector_4" d="M12.8149 14.9692C12.5216 14.9692 12.2558 14.7858 12.1641 14.4925C12.0449 14.135 12.2466 13.7408 12.6041 13.6308C14.0066 13.1725 15.8399 13.0258 17.5174 13.2183C17.8933 13.2642 18.1683 13.6033 18.1224 13.9792C18.0766 14.355 17.7374 14.6208 17.3616 14.5842C15.8766 14.41 14.2541 14.5475 13.0258 14.9417C12.9524 14.96 12.8791 14.9692 12.8149 14.9692Z" fill="url(#paint3_linear_20_131)"/>
</g>
</g>
<defs>
<linearGradient id="paint0_linear_20_131" x1="10.9954" y1="4.125" x2="10.9954" y2="19.3829" gradientUnits="userSpaceOnUse">
<stop stop-color="#001560"/>
<stop offset="1" stop-color="#396CCD"/>
</linearGradient>
<linearGradient id="paint1_linear_20_131" x1="15.1286" y1="8.25903" x2="15.1286" y2="10.0924" gradientUnits="userSpaceOnUse">
<stop stop-color="#001560"/>
<stop offset="1" stop-color="#396CCD"/>
</linearGradient>
<linearGradient id="paint2_linear_20_131" x1="15.1286" y1="10.6974" x2="15.1286" y2="12.5308" gradientUnits="userSpaceOnUse">
<stop stop-color="#001560"/>
<stop offset="1" stop-color="#396CCD"/>
</linearGradient>
<linearGradient id="paint3_linear_20_131" x1="15.1286" y1="13.1357" x2="15.1286" y2="14.9692" gradientUnits="userSpaceOnUse">
<stop stop-color="#001560"/>
<stop offset="1" stop-color="#396CCD"/>
</linearGradient>
<clipPath id="clip0_20_131">
<rect width="22" height="22" fill="white"/>
</clipPath>
</defs>
</svg>
